<?xml version="1.0" encoding="UTF-8"?>
<svg version="1.1" xmlns="http://www.w3.org/2000/svg" width="535" height="618">
<path d="M0 0 C0.33 0 0.66 0 1 0 C1 1.98 1 3.96 1 6 C1.66 6 2.32 6 3 6 C3.33 10.29 3.66 14.58 4 19 C4.66 19 5.32 19 6 19 C6.33951619 20.56116819 6.67132544 22.12401338 7 23.6875 C7.185625 24.55761719 7.37125 25.42773438 7.5625 26.32421875 C7.98972047 28.93712964 8.07616201 31.35813038 8 34 C8.66 34 9.32 34 10 34 C10.33 36.64 10.66 39.28 11 42 C11.66 42 12.32 42 13 42 C13.99 47.445 13.99 47.445 15 53 C15.66 53 16.32 53 17 53 C17.33 55.31 17.66 57.62 18 60 C18.66 60 19.32 60 20 60 C20.99 65.445 20.99 65.445 22 71 C22.66 71 23.32 71 24 71 C24.33 73.31 24.66 75.62 25 78 C25.66 78 26.32 78 27 78 C27.33 79.98 27.66 81.96 28 84 C28.66 84 29.32 84 30 84 C30.99 88.455 30.99 88.455 32 93 C32.66 93 33.32 93 34 93 C34.33 94.98 34.66 96.96 35 99 C35.66 99 36.32 99 37 99 C37.28875 100.134375 37.5775 101.26875 37.875 102.4375 C38.24625 103.613125 38.6175 104.78875 39 106 C39.66 106.33 40.32 106.66 41 107 C41.40729228 109.32156597 41.74438677 111.6568787 42 114 C42.66 114 43.32 114 44 114 C44.99 117.96 44.99 117.96 46 122 C46.66 122 47.32 122 48 122 C48.33 123.98 48.66 125.96 49 128 C49.66 128 50.32 128 51 128 C51.12375 128.639375 51.2475 129.27875 51.375 129.9375 C51.58125 130.618125 51.7875 131.29875 52 132 C52.66 132.33 53.32 132.66 54 133 C54.66666667 135.33333333 55.33333333 137.66666667 56 140 C56.66 140.33 57.32 140.66 58 141 C58.40729228 143.32156597 58.74438677 145.6568787 59 148 C59.66 148 60.32 148 61 148 C62.25664978 150.90600261 63 152.79604584 63 156 C63.66 156 64.32 156 65 156 C65.33 157.65 65.66 159.3 66 161 C66.66 161 67.32 161 68 161 C69.25664978 163.90600261 70 165.79604584 70 169 C70.66 169 71.32 169 72 169 C72.33 170.65 72.66 172.3 73 174 C73.66 174 74.32 174 75 174 C75.33 175.65 75.66 177.3 76 179 C76.66 179 77.32 179 78 179 C78.433125 180.7015625 78.433125 180.7015625 78.875 182.4375 C79.24625 183.613125 79.6175 184.78875 80 186 C80.66 186.33 81.32 186.66 82 187 C82.40729228 189.32156597 82.74438677 191.6568787 83 194 C83.99 194.33 84.98 194.66 86 195 C86.33 197.31 86.66 199.62 87 202 C87.99 202.33 88.98 202.66 90 203 C90 204.32 90 205.64 90 207 C90.66 207 91.32 207 92 207 C93.25664978 209.90600261 94 211.79604584 94 215 C94.66 215 95.32 215 96 215 C96.33 216.65 96.66 218.3 97 220 C97.66 220 98.32 220 99 220 C99.33 221.65 99.66 223.3 100 225 C100.66 225 101.32 225 102 225 C102.66 227.97 103.32 230.94 104 234 C104.66 234 105.32 234 106 234 C106.33 235.65 106.66 237.3 107 239 C107.66 239 108.32 239 109 239 C110.25664978 241.90600261 111 243.79604584 111 247 C111.66 247 112.32 247 113 247 C113.33 248.65 113.66 250.3 114 252 C114.66 252 115.32 252 116 252 C116.66 254.97 117.32 257.94 118 261 C118.66 261 119.32 261 120 261 C120.33 262.98 120.66 264.96 121 267 C121.66 267 122.32 267 123 267 C123.33 268.65 123.66 270.3 124 272 C124.66 272 125.32 272 126 272 C127.31626692 275.61973402 128 278.09567131 128 282 C128.66 282 129.32 282 130 282 C130.33 283.98 130.66 285.96 131 288 C131.66 288 132.32 288 133 288 C133.66 291.3 134.32 294.6 135 298 C135.66 298 136.32 298 137 298 C137.33 300.31 137.66 302.62 138 305 C138.99 305.33 139.98 305.66 141 306 C141.33 308.31 141.66 310.62 142 313 C142.66 313 143.32 313 144 313 C144.33 314.98 144.66 316.96 145 319 C145.66 319 146.32 319 147 319 C147.33 321.31 147.66 323.62 148 326 C148.66 326 149.32 326 150 326 C151.31626692 329.61973402 152 332.09567131 152 336 C152.66 336 153.32 336 154 336 C154.33 337.98 154.66 339.96 155 342 C155.66 342 156.32 342 157 342 C157.66 345.63 158.32 349.26 159 353 C159.66 353 160.32 353 161 353 C161.33 355.97 161.66 358.94 162 362 C162.66 362 163.32 362 164 362 C164.66 365.63 165.32 369.26 166 373 C166.66 373 167.32 373 168 373 C168.33 375.64 168.66 378.28 169 381 C169.66 381 170.32 381 171 381 C171.33 384.3 171.66 387.6 172 391 C172.66 391 173.32 391 174 391 C175.22899346 397.06815522 176.27560214 402.79895188 176 409 C176.66 409 177.32 409 178 409 C179.10228696 413.40914783 179.07654536 417.48382401 179 422 C179.66 422 180.32 422 181 422 C182.21086752 433.35349319 183.38178283 444.56772513 183 456 C183.66 456 184.32 456 185 456 C185 457.65 185 459.3 185 461 C184.34 461 183.68 461 183 461 C183 461.99 183 462.98 183 464 C183.66 464 184.32 464 185 464 C185 464.66 185 465.32 185 466 C184.34 466 183.68 466 183 466 C183 466.66 183 467.32 183 468 C183.66 468.33 184.32 468.66 185 469 C184.34 469 183.68 469 183 469 C183 470.32 183 471.64 183 473 C183.66 473.33 184.32 473.66 185 474 C184.34 474 183.68 474 183 474 C183 474.66 183 475.32 183 476 C183.66 476.33 184.32 476.66 185 477 C184.34 477 183.68 477 183 477 C183.01160156 477.73863281 183.02320313 478.47726562 183.03515625 479.23828125 C183.18811881 496.43564356 183.18811881 496.43564356 181 503 C180.34 503 179.68 503 179 503 C179.01160156 503.61488281 179.02320313 504.22976563 179.03515625 504.86328125 C179.04869141 506.07564453 179.04869141 506.07564453 179.0625 507.3125 C179.07410156 508.11300781 179.08570313 508.91351563 179.09765625 509.73828125 C179 512 179 512 178 515 C177.34 515 176.68 515 176 515 C175.34 518.3 174.68 521.6 174 525 C173.34 525 172.68 525 172 525 C171.67 526.98 171.34 528.96 171 531 C170.34 531 169.68 531 169 531 C168.67 533.31 168.34 535.62 168 538 C167.34 538 166.68 538 166 538 C165.67 539.98 165.34 541.96 165 544 C164.01 544 163.02 544 162 544 C161.896875 545.093125 161.79375 546.18625 161.6875 547.3125 C160.99561601 551.02351413 160.72851977 551.72623352 158 554 C157.67 554.99 157.34 555.98 157 557 C156.01 557 155.02 557 154 557 C154 557.66 154 558.32 154 559 C153.34 559 152.68 559 152 559 C151.34 560.98 150.68 562.96 150 565 C149.01 565 148.02 565 147 565 C147 565.66 147 566.32 147 567 C146.34 567 145.68 567 145 567 C144.67 567.99 144.34 568.98 144 570 C143.01 570 142.02 570 141 570 C141 571.32 141 572.64 141 574 C140.01 574.33 139.02 574.66 138 575 C137.484375 575.515625 136.96875 576.03125 136.4375 576.5625 C135.963125 577.036875 135.48875 577.51125 135 578 C134.34 578 133.68 578 133 578 C133 578.66 133 579.32 133 580 C132.34 580 131.68 580 131 580 C131 580.66 131 581.32 131 582 C129.35 582.33 127.7 582.66 126 583 C126 583.66 126 584.32 126 585 C125.34 585 124.68 585 124 585 C124 585.66 124 586.32 124 587 C122.02 587.33 120.04 587.66 118 588 C117.67 589.32 117.34 590.64 117 592 C114.69 592.33 112.38 592.66 110 593 C109.67 593.99 109.34 594.98 109 596 C107.35 596 105.7 596 104 596 C104 596.66 104 597.32 104 598 C103.34 598 102.68 598 102 598 C102 598.66 102 599.32 102 600 C99.36 600.33 96.72 600.66 94 601 C94 601.66 94 602.32 94 603 C92.68 603 91.36 603 90 603 C90 603.66 90 604.32 90 605 C86.7 605.33 83.4 605.66 80 606 C80 606.66 80 607.32 80 608 C76.37 608.33 72.74 608.66 69 609 C69 609.66 69 610.32 69 611 C67.02 611 65.04 611 63 611 C63 611.66 63 612.32 63 613 C56.95170514 613.89604368 51.1105424 614.11269443 45 614 C45 614.66 45 615.32 45 616 C23.22 616 1.44 616 -21 616 C-21 615.34 -21 614.68 -21 614 C-21.61746094 614.01160156 -22.23492187 614.02320313 -22.87109375 614.03515625 C-28.67525544 614.09699663 -34.24338088 613.74278956 -40 613 C-40 612.34 -40 611.68 -40 611 C-41.65 611 -43.3 611 -45 611 C-45 610.34 -45 609.68 -45 609 C-46.5778125 609.0309375 -46.5778125 609.0309375 -48.1875 609.0625 C-51.32704904 609.01103198 -53.96883396 608.73482813 -57 608 C-57 607.34 -57 606.68 -57 606 C-59.97 605.67 -62.94 605.34 -66 605 C-66 604.34 -66 603.68 -66 603 C-67.65 603 -69.3 603 -71 603 C-71 602.34 -71 601.68 -71 601 C-73.64 600.67 -76.28 600.34 -79 600 C-79 599.34 -79 598.68 -79 598 C-79.66 598 -80.32 598 -81 598 C-81 597.34 -81 596.68 -81 596 C-83.31 595.67 -85.62 595.34 -88 595 C-88 594.34 -88 593.68 -88 593 C-89.65 592.67 -91.3 592.34 -93 592 C-93 591.34 -93 590.68 -93 590 C-93.99 590 -94.98 590 -96 590 C-96 589.34 -96 588.68 -96 588 C-97.32 587.67 -98.64 587.34 -100 587 C-100 586.34 -100 585.68 -100 585 C-100.99 585 -101.98 585 -103 585 C-103 584.34 -103 583.68 -103 583 C-104.98 582.67 -106.96 582.34 -109 582 C-109.33 580.68 -109.66 579.36 -110 578 C-111.32 577.67 -112.64 577.34 -114 577 C-114 576.34 -114 575.68 -114 575 C-114.78375 574.9175 -115.5675 574.835 -116.375 574.75 C-119 574 -119 574 -120.125 572 C-120.41375 571.34 -120.7025 570.68 -121 570 C-121.99 569.67 -122.98 569.34 -124 569 C-124 567.68 -124 566.36 -124 565 C-125.65 564.67 -127.3 564.34 -129 564 C-129 563.01 -129 562.02 -129 561 C-129.66 561 -130.32 561 -131 561 C-131 560.34 -131 559.68 -131 559 C-131.66 559 -132.32 559 -133 559 C-134.625 557.75 -134.625 557.75 -136 556 C-136 554.68 -136 553.36 -136 552 C-136.66 552 -137.32 552 -138 552 C-138 551.01 -138 550.02 -138 549 C-138.99 548.67 -139.98 548.34 -141 548 C-141 546.68 -141 545.36 -141 544 C-141.99 544 -142.98 544 -144 544 C-144.33 542.02 -144.66 540.04 -145 538 C-145.66 538 -146.32 538 -147 538 C-147.495 535.525 -147.495 535.525 -148 533 C-148.66 533 -149.32 533 -150 533 C-150.495 530.525 -150.495 530.525 -151 528 C-151.66 528 -152.32 528 -153 528 C-153.66 524.37 -154.32 520.74 -155 517 C-155.66 517 -156.32 517 -157 517 C-157.33 514.69 -157.66 512.38 -158 510 C-158.66 510 -159.32 510 -160 510 C-160.33611568 507.89627599 -160.66879946 505.79200343 -161 503.6875 C-161.2784375 501.92986328 -161.2784375 501.92986328 -161.5625 500.13671875 C-162 497 -162 497 -162 494 C-162.66 494 -163.32 494 -164 494 C-164 493.34 -164 492.68 -164 492 C-163.34 492 -162.68 492 -162 492 C-162 491.34 -162 490.68 -162 490 C-162.66 490 -163.32 490 -164 490 C-164.74805717 482.97360585 -165.13794954 476.06608191 -165 469 C-165.66 468.67 -166.32 468.34 -167 468 C-166.34 468 -165.68 468 -165 468 C-165 465.69 -165 463.38 -165 461 C-165.66 461 -166.32 461 -167 461 C-167 458.36 -167 455.72 -167 453 C-166.34 453 -165.68 453 -165 453 C-165.00523682 452.34515625 -165.01047363 451.6903125 -165.01586914 451.015625 C-165.036827 448.01042667 -165.0497195 445.00524379 -165.0625 442 C-165.07087891 440.97003906 -165.07925781 439.94007813 -165.08789062 438.87890625 C-165.10613637 433.14974387 -164.86475384 427.66515899 -164 422 C-163.34 422 -162.68 422 -162 422 C-162.02320313 421.42894531 -162.04640625 420.85789062 -162.0703125 420.26953125 C-162.2317447 413.01661323 -161.25225189 406.13336347 -160 399 C-159.34 399 -158.68 399 -158 399 C-157.67 394.71 -157.34 390.42 -157 386 C-156.34 386 -155.68 386 -155 386 C-154.855625 384.824375 -154.71125 383.64875 -154.5625 382.4375 C-154.08589824 378.61787728 -153.55546456 374.80889981 -153 371 C-152.34 371 -151.68 371 -151 371 C-150.67 368.36 -150.34 365.72 -150 363 C-149.34 363 -148.68 363 -148 363 C-147.67 359.7 -147.34 356.4 -147 353 C-146.34 353 -145.68 353 -145 353 C-144.01 347.555 -144.01 347.555 -143 342 C-142.34 342 -141.68 342 -141 342 C-140.67 339.36 -140.34 336.72 -140 334 C-139.34 334 -138.68 334 -138 334 C-137.34 330.04 -136.68 326.08 -136 322 C-135.34 322 -134.68 322 -134 322 C-133.67 320.02 -133.34 318.04 -133 316 C-132.34 316 -131.68 316 -131 316 C-130.34 312.7 -129.68 309.4 -129 306 C-128.34 306 -127.68 306 -127 306 C-126.67 303.36 -126.34 300.72 -126 298 C-125.34 298 -124.68 298 -124 298 C-123.67 296.02 -123.34 294.04 -123 292 C-122.34 292 -121.68 292 -121 292 C-120.855625 291.2575 -120.71125 290.515 -120.5625 289.75 C-120.09812508 287.47972261 -119.58136431 285.24240521 -119 283 C-118.34 283 -117.68 283 -117 283 C-116.67 281.02 -116.34 279.04 -116 277 C-115.34 277 -114.68 277 -114 277 C-113.34 273.7 -112.68 270.4 -112 267 C-111.34 267 -110.68 267 -110 267 C-109.67 265.02 -109.34 263.04 -109 261 C-108.34 261 -107.68 261 -107 261 C-106.34 257.7 -105.68 254.4 -105 251 C-104.34 251 -103.68 251 -103 251 C-102.67 249.35 -102.34 247.7 -102 246 C-101.34 246 -100.68 246 -100 246 C-99.67 244.35 -99.34 242.7 -99 241 C-98.34 241 -97.68 241 -97 241 C-96.7834375 239.3603125 -96.7834375 239.3603125 -96.5625 237.6875 C-96 234 -96 234 -95 231 C-94.34 231 -93.68 231 -93 231 C-92.505 228.03 -92.505 228.03 -92 225 C-91.34 225 -90.68 225 -90 225 C-89.01 221.04 -89.01 221.04 -88 217 C-87.34 217 -86.68 217 -86 217 C-85.67 215.35 -85.34 213.7 -85 212 C-84.34 212 -83.68 212 -83 212 C-82.7834375 210.3603125 -82.7834375 210.3603125 -82.5625 208.6875 C-82 205 -82 205 -81 202 C-80.34 202 -79.68 202 -79 202 C-78.67 200.35 -78.34 198.7 -78 197 C-77.34 197 -76.68 197 -76 197 C-75.87625 195.865625 -75.7525 194.73125 -75.625 193.5625 C-75.41875 192.386875 -75.2125 191.21125 -75 190 C-74.34 189.67 -73.68 189.34 -73 189 C-72.26924352 186.6859378 -71.59861742 184.35171131 -71 182 C-70.34 182 -69.68 182 -69 182 C-68.505 179.03 -68.505 179.03 -68 176 C-67.34 176 -66.68 176 -66 176 C-65.01 172.04 -65.01 172.04 -64 168 C-63.34 168 -62.68 168 -62 168 C-61.67 166.35 -61.34 164.7 -61 163 C-60.34 163 -59.68 163 -59 163 C-58.67 160.69 -58.34 158.38 -58 156 C-57.01 155.67 -56.02 155.34 -55 155 C-54.67 152.69 -54.34 150.38 -54 148 C-53.34 148 -52.68 148 -52 148 C-51.67 145.69 -51.34 143.38 -51 141 C-50.34 141 -49.68 141 -49 141 C-48.7834375 139.576875 -48.7834375 139.576875 -48.5625 138.125 C-48 135 -48 135 -47 133 C-46.34 133 -45.68 133 -45 133 C-44.505 130.03 -44.505 130.03 -44 127 C-43.34 127 -42.68 127 -42 127 C-41.34 123.7 -40.68 120.4 -40 117 C-39.34 117 -38.68 117 -38 117 C-37.67 115.35 -37.34 113.7 -37 112 C-36.34 112 -35.68 112 -35 112 C-35.04125 111.278125 -35.0825 110.55625 -35.125 109.8125 C-34.99078695 106.79270631 -34.24829381 104.73064271 -33 102 C-32.34 102 -31.68 102 -31 102 C-30.67 100.02 -30.34 98.04 -30 96 C-29.34 96 -28.68 96 -28 96 C-27.67 93.69 -27.34 91.38 -27 89 C-26.34 89 -25.68 89 -25 89 C-24.34 85.37 -23.68 81.74 -23 78 C-22.34 78 -21.68 78 -21 78 C-20.67 75.69 -20.34 73.38 -20 71 C-19.34 71 -18.68 71 -18 71 C-17.855625 69.741875 -17.71125 68.48375 -17.5625 67.1875 C-17.26251314 64.57332877 -16.84186703 62.52560108 -16 60 C-15.34 60 -14.68 60 -14 60 C-13.67 57.36 -13.34 54.72 -13 52 C-12.34 52 -11.68 52 -11 52 C-10.855625 50.783125 -10.71125 49.56625 -10.5625 48.3125 C-10.17219047 45.17329623 -9.67648144 42.0924866 -9 39 C-8.34 39 -7.68 39 -7 39 C-6.67 35.7 -6.34 32.4 -6 29 C-5.34 29 -4.68 29 -4 29 C-4.0309375 27.39125 -4.0309375 27.39125 -4.0625 25.75 C-4.0142016 22.85209576 -3.86844115 20.71387859 -3 18 C-2.34 18 -1.68 18 -1 18 C-1.0309375 16.0509375 -1.0309375 16.0509375 -1.0625 14.0625 C-1.07004972 9.30617675 -0.59887117 4.71611047 0 0 Z " fill="#000000" transform="translate(257,2)"/>
</svg>
